<?xml version="1.0"?>
<svg width="1034.95" height="831.61" xmlns="http://www.w3.org/2000/svg" xmlns:svg="http://www.w3.org/2000/svg" xmlns:se="http://svg-edit.googlecode.com" data-name="Layer 1">
 <defs>
  <linearGradient id="eb1b6581-0e6c-46f0-8ed9-49203ffc7122" x1="0.500138" x2="0.500138" y1="0.999956" y2="-0.000003">
   <stop offset="0" stop-color="gray" stop-opacity="0.25"/>
   <stop offset="0.54" stop-color="gray" stop-opacity="0.12"/>
   <stop offset="1" stop-color="gray" stop-opacity="0.1"/>
  </linearGradient>
 </defs>
 <title>envelope</title>
 <g class="layer">
  <title>Layer 1</title>
  <path d="m601.310001,95.069999c-66.35,-1.91 -129.54,-19.75 -189.84,-39.27s-120.16,-41.11 -184.92,-51.45c-41.65,-6.65 -89.28,-7.59 -122.84,11c-32.3,17.89 -42.73,48.78 -48.34,77.45c-4.23,21.56 -6.71,44.26 4.86,64.44c8,14 22.29,25.79 32.15,39.21c34.3,46.71 10.06,104.3 -27.12,149.9c-17.44,21.39 -37.67,41.8 -51.13,64.57s-19.66,48.88 -7.91,72.08c11.67,23 39.48,40.31 69.61,52.48c61.19,24.7 133.3,31.77 203.61,35.78c155.64,8.86 312.12,5 468.18,1.18c57.75,-1.42 115.76,-2.86 172.58,-10.3c31.55,-4.13 64.12,-10.68 87,-26.5c29.08,-20.08 36.28,-54.09 16.8,-79.27c-32.68,-42.24 -123,-52.73 -145.89,-98.06c-12.58,-24.95 0.34,-52.75 18.61,-75.89c39.2,-49.64 104.91,-93.19 108.37,-149.93c2.37,-39 -29.21,-78 -78.05,-96.44c-51.19,-19.33 -122.18,-16.9 -160,15.1c-38.81,32.94 -107.15,45.65 -165.73,43.92z" fill="#6c63ff" id="svg_1" opacity="0.1"/>
  <ellipse cx="435.45" cy="802.29" fill="#6c63ff" id="svg_2" opacity="0.1" rx="290.75" ry="29.32"/>
  <path d="m169.470001,799.109999s-12.9,-73.09 -60.78,-109.31c-20.09,-15.2 -34.79,-35.87 -41.21,-59.41a179.25,179.25 0 0 1 -5.78,-34.1" fill="none" id="svg_3" stroke="#535461" stroke-miterlimit="10" stroke-width="2"/>
  <path d="m114.21,607.49c4,7.83 30.73,23.68 30.73,23.68s3.36,-29.61 -0.67,-37.45s-14,-11.11 -22.32,-7.31s-11.77,13.24 -7.74,21.08z" fill="#6c63ff" id="svg_4" transform="translate(-82.53 -34.2)"/>
  <path d="m111.66,662.28c7.9,4.51 39.44,4.11 39.44,4.11s-14.23,-26.58 -22.1,-31.09s-18.16,-2.13 -22.94,5.32s-2.29,17.15 5.6,21.66z" fill="#6c63ff" id="svg_5" transform="translate(-82.53 -34.2)"/>
  <path d="m150.87,736c9.22,0.13 36.23,-15.25 36.23,-15.25s-26.49,-16.16 -35.72,-16.3s-16.82,6.82 -17,15.53s7.26,15.86 16.49,16.02z" fill="#6c63ff" id="svg_6" transform="translate(-82.53 -34.2)"/>
  <path d="m193.83,785.43c9.06,1.61 38.44,-9.25 38.44,-9.25s-23.22,-20.18 -32.27,-21.76s-17.8,4 -19.5,12.6s4.26,16.81 13.33,18.41z" fill="#6c63ff" id="svg_7" transform="translate(-82.53 -34.2)"/>
  <path d="m183.44,653.45c-3.15,8.19 -28,26.55 -28,26.55s-6.58,-29.12 -3.43,-37.31s12.74,-12.42 21.41,-9.45s13.17,12.03 10.02,20.21z" fill="#6c63ff" id="svg_8" transform="translate(-82.53 -34.2)"/>
  <path d="m232.91,711.89c-5.6,6.93 -35.12,17.43 -35.12,17.43s3,-29.65 8.56,-36.57a17.38,17.38 0 0 1 23.42,-3a15.2,15.2 0 0 1 3.14,22.14z" fill="#6c63ff" id="svg_9" transform="translate(-82.53 -34.2)"/>
  <path d="m272.73,774.92c-4.28,7.72 -31.49,22.78 -31.49,22.78s-2.39,-29.69 1.89,-37.41s14.37,-10.7 22.55,-6.66s11.32,13.57 7.05,21.29z" fill="#6c63ff" id="svg_10" transform="translate(-82.53 -34.2)"/>
  <path d="m31.680001,573.289999c4,7.83 30.73,23.68 30.73,23.68s3.36,-29.61 -0.67,-37.45s-14,-11.11 -22.32,-7.31s-11.77,13.24 -7.74,21.08z" fill="#ff0000" id="svg_11" opacity="0.25"/>
  <path d="m29.130001,628.079999c7.9,4.51 39.44,4.11 39.44,4.11s-14.23,-26.58 -22.1,-31.09s-18.16,-2.13 -22.94,5.32s-2.29,17.15 5.6,21.66z" fill="#ff0000" id="svg_12" opacity="0.25"/>
  <path d="m150.87,737c9.22,0.13 36.23,-15.25 36.23,-15.25s-26.49,-16.16 -35.72,-16.3s-16.82,6.82 -17,15.53s7.26,15.86 16.49,16.02z" fill="#ff0000" id="svg_13" opacity="0.25" transform="translate(-82.53 -34.2)"/>
  <path d="m193.83,784.43c9.06,1.61 38.44,-9.25 38.44,-9.25s-23.22,-20.18 -32.27,-21.76s-17.8,4 -19.5,12.6s4.26,16.81 13.33,18.41z" fill="#ff0000" id="svg_14" opacity="0.25" transform="translate(-82.53 -34.2)"/>
  <path d="m100.910001,619.249999c-3.15,8.19 -28,26.55 -28,26.55s-6.58,-29.12 -3.43,-37.31s12.74,-12.42 21.41,-9.45s13.17,12.03 10.02,20.21z" fill="#ff0000" id="svg_15" opacity="0.25"/>
  <path d="m150.380001,677.689999c-5.6,6.93 -35.12,17.43 -35.12,17.43s3,-29.65 8.56,-36.57a17.38,17.38 0 0 1 23.42,-3a15.2,15.2 0 0 1 3.14,22.14z" fill="#ff0000" id="svg_16" opacity="0.25"/>
  <path d="m190.200001,740.719999c-4.28,7.72 -31.49,22.78 -31.49,22.78s-2.39,-29.69 1.89,-37.41s14.37,-10.7 22.55,-6.66s11.32,13.57 7.05,21.29z" fill="#ff0000" id="svg_17" opacity="0.25"/>
  <path d="m167.850001,797.189999s19.57,-71.76 -8.65,-123.2c-11.84,-21.58 -16.41,-46.1 -12.17,-70.08a180,180 0 0 1 9.35,-33.38" fill="none" id="svg_18" stroke="#535461" stroke-miterlimit="10" stroke-width="2"/>
  <path d="m138.800001,538.019999c0.32,8.7 17.93,33.41 17.93,33.41s15.78,-25.79 15.46,-34.5s-8.05,-15.52 -17.27,-15.22s-16.45,7.6 -16.12,16.31z" fill="#ff7f00" id="svg_19"/>
  <path d="m112.960001,587.139999c5.28,7.14 34.28,18.84 34.28,18.84s-1.6,-29.74 -6.88,-36.89a17.35,17.35 0 0 0 -23.26,-3.91a15.23,15.23 0 0 0 -4.14,21.96z" fill="#ff7f00" id="svg_20"/>
  <path d="m117.160001,669.509999c8.38,3.65 39.68,-0.07 39.68,-0.07s-17.29,-24.92 -25.67,-28.57s-18.3,-0.2 -22.17,7.71s-0.21,17.28 8.16,20.93z" fill="#ff7f00" id="svg_21"/>
  <path d="m135.210001,731.159999c7.61,4.94 39.12,6.25 39.12,6.25s-12.58,-27.31 -20.18,-32.24a17.33,17.33 0 0 0 -23.23,4a15.23,15.23 0 0 0 4.29,21.99z" fill="#ff7f00" id="svg_22"/>
  <path d="m184.370001,604.529999c-6.4,6.28 -37,13.57 -37,13.57s6.49,-29.15 12.88,-35.43a17.42,17.42 0 0 1 23.63,-0.44a15.16,15.16 0 0 1 0.49,22.3z" fill="#ff7f00" id="svg_23"/>
  <path d="m202.470001,678.879999c-8.09,4.19 -39.58,2.5 -39.58,2.5s15.43,-26 23.52,-30.16s18.25,-1.39 22.68,6.25s1.51,17.22 -6.62,21.41z" fill="#ff7f00" id="svg_24"/>
  <path d="m211.860001,751.739999c-7.23,5.42 -38.57,8.78 -38.57,8.78s10.56,-28.07 17.79,-33.49a17.38,17.38 0 0 1 23.47,2.55a15.19,15.19 0 0 1 -2.69,22.16z" fill="#ff7f00" id="svg_25"/>
  <path d="m1074.74,412.36c0.6,-1.64 -3.9,-10.73 -3.9,-11.18s-4.65,-5.52 -4.65,-8.35s-6.16,-8.94 -6.16,-8.94s-8.25,-3.43 -9.15,-10.88s-9.89,-7.61 -9.91,-7.61l0,0s0,-0.68 0.06,-1.71c0,-2.32 -0.07,-6.46 -1.11,-8.72a8.85,8.85 0 0 0 -5.11,-4.33s-0.9,-5.81 -2.7,-7.6a8.56,8.56 0 0 1 -2.11,-8.04c0.9,-2.83 -1.2,-10 -5.56,-11s-9.3,-2.68 -9.3,-2.68s-0.49,0.09 -1.2,0.19l-0.6,-0.19a26.78,26.78 0 0 1 -3.16,0.39a3.85,3.85 0 0 1 -2.54,-0.84c-1.51,-1.64 -13.67,-4.77 -15.92,-4.77s-8.71,-3 -8.71,-3l-6.44,-4.92c-1.81,-1.38 -5.16,-7 -5.65,-7.79l-0.06,-0.11l0,0l0,0a27,27 0 0 1 -1.36,-3.92l0,0a35.44,35.44 0 0 0 5.58,-7.67c0.16,-0.29 0.3,-0.59 0.44,-0.88a3.59,3.59 0 0 0 1,-0.16c0.13,0 0.26,-0.1 0.39,-0.15a6.55,6.55 0 0 0 3.19,-3.81l0,0c0.11,-0.32 0.21,-0.65 0.29,-1c0,-0.11 0,-0.23 0.07,-0.34s0.1,-0.45 0.14,-0.68s0.05,-0.26 0.07,-0.38s0.07,-0.45 0.1,-0.68s0,-0.25 0,-0.37c0,-0.29 0.07,-0.57 0.11,-0.85l0,0a30.28,30.28 0 0 1 0.47,-3.15s0,0 0,0l0,0c0.9,-4 3.33,-7.46 5.06,-11.2l0,0c0.25,-0.53 0.48,-1.08 0.69,-1.63s0.42,-1.2 0.59,-1.81l0.15,-0.56c0.11,-0.44 0.21,-0.89 0.3,-1.34c0,-0.2 0.08,-0.4 0.11,-0.6c0.1,-0.62 0.19,-1.24 0.24,-1.87a23.18,23.18 0 0 0 -1.49,-10.51c-1.13,-2.8 -2.8,-5.32 -3.94,-8.12c-1.73,-4.24 -2.18,-9 -4.29,-13.08c-3.53,-6.78 -11.85,-10.17 -18.69,-7.62c-3.27,1.21 -6.1,3.57 -9.41,4.63c-4.44,1.41 -9.18,0.35 -13.77,-0.29s-9.67,-0.69 -13.36,2.31c-4.25,3.45 -5.42,9.94 -9.41,13.73c-1.67,1.59 -3.76,2.61 -5.53,4.08a9,9 0 0 0 -2.77,3.79c0,0.11 -0.07,0.21 -0.1,0.32s-0.07,0.25 -0.1,0.38s-0.06,0.3 -0.08,0.45s0,0.21 0,0.31a5.33,5.33 0 0 0 0,0.8l0,0a6.54,6.54 0 0 0 0.13,0.75c0,0.07 0,0.14 0,0.21s0.12,0.41 0.19,0.62a0.56,0.56 0 0 0 0,0.12c0.08,0.23 0.17,0.45 0.26,0.68l0.15,0.34l0.12,0.28a17.38,17.38 0 0 1 1.39,3.46a3.91,3.91 0 0 1 -0.13,2.29a7,7 0 0 1 -1.67,2.18a31,31 0 0 0 -6.77,10.85c-0.17,0.46 -0.34,0.92 -0.49,1.4l0,0l0.21,0.05a8.52,8.52 0 0 0 1.31,0.29c0.25,0 0.5,0.06 0.76,0.08a11.75,11.75 0 0 0 3.06,-0.24c0.25,-0.05 0.51,-0.11 0.76,-0.18a18.87,18.87 0 0 0 3,-1.11c0,0.3 0,0.61 0,0.91s0,0.34 0,0.51a35.47,35.47 0 0 0 19.69,31.71c0,0.32 0.09,0.65 0.13,1s0.07,0.54 0.1,0.81l-0.4,-0.39s-2.71,-1.34 -5.26,2.53s-7.35,5.67 -7.35,5.67s-27.32,4.32 -28.37,7.9l-12.76,0.74s-4.51,0.6 -5,10s-2.85,10.29 -2.85,10.29s-5.25,9.24 -4.8,14s-4,7.16 -4,7.16l-0.6,8.49s-5,-0.74 -6.31,5.07s-3.75,8.5 -3.75,8.5s-8.26,6.86 -8.71,12.67l-5.1,3.13s-11.86,-2.68 -14.56,-7.45l-0.83,-0.78a0.75,0.75 0 0 1 -0.07,-0.12a0.28,0.28 0 0 0 0,0.06c-1.78,-1.68 -5.54,-5.18 -5,-4.38a3.64,3.64 0 0 1 0.24,2.4l-0.88,-1l-2.36,-2.62s-19.17,-18 -30.43,-19.38l0,0c-0.15,-0.29 -0.87,-3.12 -2.79,-1.35a15.65,15.65 0 0 0 -0.11,23l17.95,16.77l0.46,0.34l3.86,5c-0.65,1.56 -1.2,3.07 -1.65,4.45c0,0 0,0.09 -0.05,0.13c-0.09,0.3 -0.19,0.58 -0.28,0.86l-0.09,0.3c-0.08,0.28 -0.17,0.56 -0.25,0.82s-0.09,0.33 -0.14,0.49s0,0.19 -0.08,0.28c-0.42,1.5 -0.7,2.65 -0.84,3.29l-1,-0.31l1,0.42c0,0.05 0,0.11 0,0.16l-0.06,0.31l0.92,0.4c5.26,2.29 31.51,13.8 32.86,15.55c1.5,1.93 11.4,7.6 20.41,2.83s11,-12.08 11,-12.08s8.7,-12.07 9,-13.86s7.06,-3.88 7.06,-3.88s0.6,20 -2.85,27.28s-9.91,39.66 -9.91,39.66a4.76,4.76 0 0 1 1.28,-0.08c-0.24,1.17 -0.38,1.87 -0.38,1.87a4.46,4.46 0 0 1 1.59,0c-0.48,3.68 -3.24,20.76 -3.24,20.76s-0.9,7.75 -2.4,10.43s-1.65,16.7 -1.65,16.7l-2.4,10.13a19.57,19.57 0 0 0 0.91,1.75l0,0s2.58,5.72 6.91,8.93a18.3,18.3 0 0 1 -1.21,4.64a16.07,16.07 0 0 0 -1.2,7.15s-2.55,11.48 -2.25,14.76s-1.65,11.33 -1.65,11.33l-2.79,25.86s-1.8,22.51 -0.9,28.63s-0.61,14.45 -0.61,14.45s1.8,17.74 1.35,19.68s-2.7,10.28 -1.35,14.91s0.61,17.29 0.61,17.29s0.9,16.69 1.94,22.06s-0.3,12.23 -0.3,12.23s-1,11.47 -1.5,11.47s-4.35,7.9 3.6,15.66s3,6.55 3,6.55s-6.3,-3.13 -5.56,3.28c0.72,6.1 1.71,4.51 1.8,4.34l-1.5,4.9l1,0.15l-0.87,1a23.29,23.29 0 0 1 -3,3.14c-1.81,1.34 -2,4.32 -2,4.32s-11.1,12.08 -21.46,18.19c-5.45,3.22 -10.15,5.94 -12.2,8.19c-1.85,2 -1.55,3.66 2.29,4.93c8.11,2.68 22.36,4 32.57,0.6a38.06,38.06 0 0 0 15.91,-10.29s6.46,-3.28 12.77,-2.09s18.91,-7 18.91,-7l-0.23,-2.12l-0.67,-6.09a4.79,4.79 0 0 1 -1.05,-3.72a19.31,19.31 0 0 0 -0.53,-5.36c-0.1,-0.59 -0.22,-1.18 -0.33,-1.73l1.15,-0.21s-1.49,-7.61 1.21,-9.1s1.94,-21 1.94,-21s-3.44,-4.47 -5.25,-5.21s-0.15,-10 0.16,-11.19s2.7,-24.3 2.7,-24.3s-0.9,-7.3 0.3,-10.43s-1.44,-15.13 -1.44,-15.13s-0.9,-1.49 0.76,-3.28s1,-17.74 1,-17.74s-0.14,-8.05 -0.14,-10.14s1.8,-9.69 3.45,-12.22s0.6,-10.44 0.6,-10.44l0,0l0.09,-0.59c0,-0.23 0.08,-0.51 0.14,-0.85l0.13,-0.79a112.6,112.6 0 0 1 2.97,-13.01c2,-6.26 4.2,-17.29 4.2,-17.29l14,-36.4l0.16,-0.43s6.45,11.93 6.45,23c0,0 1.65,13.27 1.2,16.85s1.33,20.33 1.33,20.33s1.95,24.15 1.95,25.2s2.4,19.68 3.91,22.51s-1.51,11.48 -2.41,12.37s0.3,22.81 0.3,22.81s-2.25,17.29 -2.7,20.87s-2.25,17.3 -0.75,22.66s0.9,6.11 0.9,6.11s5.41,5.52 2.25,6a8.25,8.25 0 0 0 -6,10.87a139.25,139.25 0 0 0 6.61,16s0.93,-0.21 2.48,-0.52l0,1.77l0.18,8.88s1,8.5 0.45,10.44c-0.44,1.42 -1,8.1 -1.33,11.59c-0.11,1.27 -0.17,2.12 -0.17,2.12s0,7.9 16.66,5.52s19.66,-8.94 19.66,-8.94s0,-0.31 0.12,-0.82c0.25,-1.51 0.79,-4.71 1.23,-6.49c0.6,-2.39 -4.8,-13.12 -4.8,-13.12s-0.9,-7.3 -2.41,-8.94a7.92,7.92 0 0 1 -1.2,-3.13c-0.14,-0.6 -0.26,-1.23 -0.36,-1.84a11,11 0 0 1 1.11,0.2s-0.9,-5.22 2.56,-6.86s2.55,-5.06 2.1,-6.56s1.35,-9.84 1.35,-9.84a4.85,4.85 0 0 1 1.2,-4.76c2.11,-2.1 3.75,-16.7 3.75,-16.7l0.3,-56.35s1.06,-10 -0.14,-14s-2.41,-11.77 -0.76,-13.86s0.15,-11.77 0.15,-11.77s0,-20.43 2.26,-25.49s1.5,-37.12 1.5,-37.12l0.59,-21s4.91,-4.64 3.75,-28.83c5.23,-0.33 11.13,-0.52 12,0.2c1.65,1.35 12.31,8.2 18.61,3.88c1.35,-0.6 7.5,-5.81 7.5,-5.81l-2.64,-44.7c1.65,2.49 2.65,4.15 2.65,4.15c0,-6.26 17.71,-26.54 17.71,-26.54s16.51,-21.31 20.11,-23.85s10.66,-15.95 10.66,-15.95a64.65,64.65 0 0 1 3.61,-7.45c1.71,-2.75 -3.7,-9.91 -3.1,-11.55zm-38.74,15.64c-4.5,0.45 -14,10.74 -14.11,13c-0.07,1.18 -1.07,2.76 -2,4c-0.07,-0.9 -0.15,-1.82 -0.22,-2.75c-1.06,-13.17 -2.21,-29.22 -1.69,-30.78c0.91,-2.68 0.6,-14.75 0.6,-14.75l0,0l0.16,-0.23c3,9.35 12.43,20.38 12.43,20.38s1.65,4.77 3.6,4.92s1.23,6.21 1.23,6.21z" fill="url(#eb1b6581-0e6c-46f0-8ed9-49203ffc7122)" id="svg_26" transform="translate(-82.53 -34.2)"/>
  <path d="m795.34,424.61s5.47,-28.7 23.08,-28.85l12.87,26.48l-8.58,5.92s-18.64,0.59 -27.37,-3.55z" fill="#65617d" id="svg_27" transform="translate(-82.53 -34.2)"/>
  <path d="m831.29,422.24l-8.58,5.92s-13.12,0.42 -22.5,-1.89a26.92,26.92 0 0 1 -4.87,-1.66s0,-0.16 0.1,-0.46c0,0 0,-0.07 0,-0.11a64.76,64.76 0 0 1 3.33,-10.54c0.55,-1.29 1.16,-2.62 1.82,-3.95c2.58,-5 6.2,-9.82 11.16,-12.23a15.17,15.17 0 0 1 5.87,-1.53l0.52,0l0.26,0l0.28,0.59l4.35,8.94l8.26,16.92z" id="svg_28" opacity="0.1" transform="translate(-82.53 -34.2)"/>
  <path d="m977.45,541.48s18.5,-1.77 20.12,-0.44s12.13,8.13 18.35,3.84s2.07,-19.23 2.07,-19.82s-0.59,-21.75 -0.59,-21.75l-11.1,-14.94l-13.9,-26.18l-28.4,-2.82l0.74,41.58l-0.15,21.3l12.86,19.23z" fill="#65617d" id="svg_29" transform="translate(-82.53 -34.2)"/>
  <path d="m977.45,541.48s18.5,-1.77 20.12,-0.44s12.13,8.13 18.35,3.84s2.07,-19.23 2.07,-19.82s-0.59,-21.75 -0.59,-21.75l-11.1,-14.94l-13.9,-26.18l-28.4,-2.82l0.74,41.58l-0.15,21.3l12.86,19.23z" id="svg_30" opacity="0.1" transform="translate(-82.53 -34.2)"/>
  <path d="m814.72,395s-1.48,18.05 -12.72,18.34c0,0 -3.19,-1.92 -7.48,-5.12c-9.88,-7.39 -25.55,-21.6 -21.22,-34.82c6.21,-18.93 36.39,16 36.39,16l2.31,2.6l2.72,3z" fill="#fbbebe" id="svg_31" transform="translate(-82.53 -34.2)"/>
  <path d="m814.72,395s-1.48,18.05 -12.72,18.34c0,0 -3.19,-1.92 -7.48,-5.12l-0.95,-1.23a14.79,14.79 0 0 0 6.16,1.66a8.33,8.33 0 0 0 8,-5.07a63.51,63.51 0 0 0 3.11,-7.16a20.87,20.87 0 0 0 1.16,-4.42l2.72,3z" id="svg_32" opacity="0.1" transform="translate(-82.53 -34.2)"/>
  <path d="m809.84,427.72l-2.53,-3.26l-8.52,-11l-4.34,-5.61a14.62,14.62 0 0 0 6.16,1.66c2.83,0.07 6,-1 8,-5.06a64.62,64.62 0 0 0 3.11,-7.17c1.4,-4 1.38,-6 0.88,-6.73s3.14,2.68 4.89,4.34l0.06,0.06l0.82,0.77l0.3,0.6l4.29,8.57s0,0.12 0,0.36c0.42,2.75 1.87,20.02 -13.12,22.47z" fill="#e7effd" id="svg_33" transform="translate(-82.53 -34.2)"/>
  <path d="m898.46,808.51s-12.43,8.14 -18.64,7s-12.58,2.08 -12.58,2.08a37.48,37.48 0 0 1 -15.69,10.21c-10,3.4 -24.1,2.06 -32.09,-0.6c-3.78,-1.26 -4.09,-2.88 -2.27,-4.89c2,-2.24 6.66,-4.93 12,-8.13c10.21,-6.06 21.15,-18 21.15,-18s0.15,-3 1.93,-4.28a23.06,23.06 0 0 0 3,-3.12c1.59,-1.88 3.08,-3.84 3.08,-3.84l36.56,1.06s0.62,2.63 1.11,5.32a19.27,19.27 0 0 1 0.51,5.33a4.82,4.82 0 0 0 1,3.69l0.66,6l0.27,2.17z" fill="#65617d" id="svg_34" transform="translate(-82.53 -34.2)"/>
  <path d="m974.94,818.72c-0.44,1.77 -1,4.94 -1.21,6.43l-0.13,0.82s-3,6.51 -19.37,8.88s-16.42,-5.48 -16.42,-5.48s0.06,-0.84 0.16,-2.11c0.29,-3.46 0.88,-10.09 1.32,-11.5c0.58,-1.92 -0.45,-10.36 -0.45,-10.36l-0.17,-8.81l-0.13,-6.12l27.23,-2.82a49.4,49.4 0 0 0 0.88,6.06a7.75,7.75 0 0 0 1.19,3.11c1.48,1.63 2.36,8.88 2.36,8.88s5.33,10.65 4.74,13.02z" fill="#65617d" id="svg_35" transform="translate(-82.53 -34.2)"/>
  <path d="m894.91,786s0.62,2.63 1.11,5.32c-3.95,0.73 -21.21,3.72 -25.52,1.63c-4.89,-2.37 -15.39,-3.7 -15.39,-3.7l0.17,-0.6c1.59,-1.88 3.08,-3.84 3.08,-3.84l36.55,1.19z" id="svg_36" opacity="0.1" transform="translate(-82.53 -34.2)"/>
  <path d="m966.65,793.71c-6.9,-1.17 -22,1.66 -28,2.88l-0.13,-6.12l27.23,-2.82a49.4,49.4 0 0 0 0.9,6.06z" id="svg_37" opacity="0.1" transform="translate(-82.53 -34.2)"/>
  <path d="m899.470001,535.239999l-0.59,20.86s0.74,31.81 -1.48,36.84s-2.22,25.3 -2.22,25.3s1.48,9.61 -0.15,11.68s-0.44,9.76 0.74,13.76s0.15,13.91 0.15,13.91l-0.3,55.92s-1.62,14.49 -3.7,16.57a4.85,4.85 0 0 0 -1.18,4.73s-1.77,8.28 -1.33,9.77s1.33,4.88 -2.07,6.5s-2.52,6.81 -2.52,6.81c-8.13,-1.93 -31.21,3.26 -31.21,3.26a138.84,138.84 0 0 1 -6.51,-15.84a8.19,8.19 0 0 1 5.92,-10.79c3.1,-0.45 -2.22,-5.92 -2.22,-5.92s0.59,-0.74 -0.89,-6.06s0.29,-19 0.74,-22.5s2.66,-20.71 2.66,-20.71s-1.18,-21.74 -0.29,-22.63s3.84,-9.47 2.37,-12.28s-3.86,-21.3 -3.86,-22.34s-1.91,-25 -1.91,-25s-1.78,-16.72 -1.33,-20.27s-1.19,-16.71 -1.19,-16.71c0,-11 -6.36,-22.79 -6.36,-22.79l-0.16,0.43l-13.71,36.12s-2.22,10.94 -4.14,17.15a112.18,112.18 0 0 0 -2.89,12.85l-0.13,0.79c0,0.33 -0.1,0.61 -0.13,0.83l-0.09,0.6l0,0s1,7.84 -0.6,10.36s-3.4,10.06 -3.4,12.13s0.15,10.06 0.15,10.06s0.59,15.83 -1,17.61s-0.75,3.25 -0.75,3.25s2.66,12 1.48,15.09s-0.29,10.35 -0.29,10.35s-2.37,22.94 -2.66,24.12s-1.93,10.36 -0.15,11.1s5.17,5.17 5.17,5.17s0.75,19.39 -1.92,20.86s-1.19,9 -1.19,9s-21.44,4.14 -26.32,1.77s-15.39,-3.7 -15.39,-3.7l1.47,-4.86c-0.09,0.17 -1.07,1.75 -1.77,-4.31c-0.73,-6.36 5.48,-3.26 5.48,-3.26s4.88,1.19 -3,-6.5s-4,-15.54 -3.55,-15.54s1.49,-11.38 1.49,-11.38s1.33,-6.81 0.29,-12.14s-1.92,-21.9 -1.92,-21.9s0.74,-12.57 -0.59,-17.15s0.88,-12.88 1.33,-14.8s-1.38,-19.48 -1.38,-19.48s1.48,-8.28 0.59,-14.34s0.89,-28.41 0.89,-28.41l2.66,-25.74s1.92,-8 1.63,-11.25s2.23,-14.64 2.23,-14.64a16,16 0 0 1 1.18,-7.1c1.48,-3 2.07,-12.72 2.07,-12.72l14.21,-32.55l7,-28.7l93.93,-0.89s0.35,2.49 0.92,7s1.37,11.21 2.26,19.48c0.82,7.51 1.72,16.34 2.59,26.17c2.84,31.38 -3.16,37 -3.16,37z" fill="#3f3d56" id="svg_38"/>
  <path d="m973.31,310.4l-21.9,23.38s-28.1,-11.25 -25.14,-15.09c1.14,-1.49 1,-6.19 0.3,-11.37c-1,-8.2 -3.26,-17.63 -3.26,-17.63s49.11,-8 45,0.29c-1.51,3 -1.25,6.56 -0.31,9.83a37,37 0 0 0 5.31,10.59z" fill="#fbbebe" id="svg_39" transform="translate(-82.53 -34.2)"/>
  <path d="m968.28,290c-1.51,3 -2.23,3.32 -1.29,6.59c-6.42,6.87 -14.59,14.41 -24.75,14.41a35.06,35.06 0 0 1 -15.67,-3.67c-1,-8.2 -3.26,-17.63 -3.26,-17.63s49.11,-8 44.97,0.3z" id="svg_40" opacity="0.1" transform="translate(-82.53 -34.2)"/>
  <path d="m977.46,274.89a35.22,35.22 0 0 1 -70.43,0c0,-0.17 0,-0.34 0,-0.5a35.21,35.21 0 0 1 70.42,0.5l0.01,0z" fill="#fbbebe" id="svg_41" transform="translate(-82.53 -34.2)"/>
  <path d="m982.55,507.18c-4.66,0 -20.19,0.17 -37.55,0.44l-0.21,0l-5.73,0.1l-0.18,0c-20.58,0.33 -40.87,-3.69 -49,-2.93c-17.3,1.62 6.22,-16 6.22,-16a144.78,144.78 0 0 0 39.43,4l5,-0.26c15.72,-0.89 31.53,-2.37 39.79,-4.85c0.55,4.58 1.34,11.23 2.23,19.5z" id="svg_42" opacity="0.1" transform="translate(-82.53 -34.2)"/>
  <path d="m982.55,506.29c-4.66,0 -20.19,0.17 -37.55,0.44l-0.21,0l-5.73,0.1l-0.18,0c-20.58,0.33 -40.87,-3.69 -49,-2.93c-17.3,1.63 6.22,-16 6.22,-16a144.78,144.78 0 0 0 39.43,4l5,-0.26c15.72,-0.89 31.53,-2.37 39.79,-4.84c0.55,4.58 1.34,11.2 2.23,19.49z" fill="#5f5d7e" id="svg_43" transform="translate(-82.53 -34.2)"/>
  <path d="m932.78,320.16l-27.22,12.73l-21,162.43s12.42,-5.62 19.53,-2.07s29,0.3 29,0.3s16,-0.89 18.35,0.89s30.16,-7.44 30.16,-7.44s5,-11.24 1.18,-13s1.22,-19.21 1.22,-19.21l-2.4,-117.17l-4.74,-15.09l-12.72,-7.69l-13,10.35l-6.21,0.89l-12.15,-5.92z" id="svg_44" opacity="0.1" transform="translate(-82.53 -34.2)"/>
  <path d="m932.78,318.39l-27.22,12.72l-21,162.44s12.42,-5.62 19.53,-2.07s29,0.29 29,0.29s16,-0.88 18.35,0.89s30.18,-7.4 30.18,-7.4s5,-11.24 1.18,-13s1.2,-19.26 1.2,-19.26l-2.4,-117.16l-4.74,-15.08l-12.72,-7.7l-13,10.36l-6.21,0.89l-12.15,-5.92z" fill="#e7effd" id="svg_45" transform="translate(-82.53 -34.2)"/>
  <path d="m932.33,325.93s7.84,9.32 7.7,11.25s-0.45,6.51 -0.45,6.51l-5.92,12s-3.25,14.94 -3.25,18.05s-5.18,30 -5.18,30l-6.23,41.43l-7.84,54.3l8,13.75l9.46,-8l12.58,-96.76l2.66,-19.08s2.81,-34.32 2.81,-37.87s-1.62,-12.87 -1.62,-12.87s1.92,-8.88 9.91,-11s-0.59,-0.45 -0.59,-0.45l-4.59,-3.69l-4,1.62s-11.08,-3.33 -13.45,0.81z" id="svg_46" opacity="0.1" transform="translate(-82.53 -34.2)"/>
  <path d="m848.910001,290.849999s7.85,9.32 7.7,11.24s-0.45,6.51 -0.45,6.51l-5.91,12s-3.26,14.94 -3.26,18.05s-5.18,30 -5.18,30l-6.21,41.42l-7.84,54.3l8,13.76l9.47,-8l12.57,-96.75l2.67,-19.07s2.81,-34.32 2.81,-37.87s-1.62,-12.87 -1.62,-12.87s1.92,-8.88 9.91,-10.95s-0.59,-0.44 -0.59,-0.44l-4.59,-3.7l-4,1.63s-11.11,-3.41 -13.48,0.74z" fill="#3f3f3f" id="svg_47"/>
  <path d="m926.27,309.51s-1.19,0.89 -1.48,6.81s-4.44,19.23 -4.44,19.23s15.39,-10.65 23.08,-9.47l-17.16,-16.57z" id="svg_48" opacity="0.1" transform="translate(-82.53 -34.2)"/>
  <path d="m926.27,307.74s-1.19,0.88 -1.48,6.8s-4.44,19.23 -4.44,19.23s15.39,-10.65 23.08,-9.46l-17.16,-16.57z" fill="#e7effd" id="svg_49" transform="translate(-82.53 -34.2)"/>
  <path d="m968.28,304.78l-24.28,21.3s20.42,12.13 23.08,15.09s5.32,-29 5.32,-29l-4.12,-7.39z" id="svg_50" opacity="0.1" transform="translate(-82.53 -34.2)"/>
  <path d="m969.17,303l-24.26,21.31s20.41,12.13 23.09,15.09s5.32,-29 5.32,-29l-4.15,-7.4z" fill="#e7effd" id="svg_51" transform="translate(-82.53 -34.2)"/>
  <path d="m927.15,309.51s-2.66,-1.33 -5.17,2.52a16.8,16.8 0 0 1 -7.25,5.62s-26.93,4.29 -28,7.84l-12.58,0.74s-4.44,0.59 -4.88,9.91s-2.81,10.21 -2.81,10.21s-5.18,9.17 -4.73,13.9s-4,7.11 -4,7.11l18.49,48.08s0.6,19.82 -2.81,27.07s-9.76,39.35 -9.76,39.35s2.66,-0.59 2.51,1.18s-3.16,21.16 -3.16,21.16s-0.89,7.69 -2.37,10.36s-1.63,16.56 -1.63,16.56l-2.36,10.06s5.62,12.58 14.2,10.8s24.11,-35.35 24.11,-35.35l9.92,-36.25l7.69,-35.8l2.22,-24.26l3.55,-53.7l5.18,-35.51s5.72,-19.11 3.64,-21.6z" id="svg_52" opacity="0.1" transform="translate(-82.53 -34.2)"/>
  <path d="m926.27,307.74s-2.67,-1.33 -5.18,2.51a16.71,16.71 0 0 1 -7.25,5.62s-26.92,4.29 -28,7.84l-12.58,0.74s-4.43,0.6 -4.88,9.92s-2.81,10.2 -2.81,10.2s-5.18,9.18 -4.73,13.91s-4,7.1 -4,7.1l18.5,48.08s0.59,19.82 -2.81,27.07s-9.77,39.36 -9.77,39.36s2.66,-0.6 2.52,1.18s-3.26,21.15 -3.26,21.15s-0.89,7.7 -2.37,10.36s-1.62,16.57 -1.62,16.57l-2.37,10.06s5.62,12.57 14.2,10.8s24.14,-35.36 24.14,-35.36l9.91,-36.24l7.69,-35.8l2.22,-24.27l3.55,-53.7l5.18,-35.5s5.79,-19.09 3.72,-21.6z" fill="#65617d" id="svg_53" transform="translate(-82.53 -34.2)"/>
  <path d="m831.29,422.24l-8.58,5.92s-13.12,0.42 -22.5,-1.89l-4.77,-2.12l-1,-0.42l1,0.31c4.95,1.47 8.82,1.44 11.85,0.42c12.14,-4.09 10.8,-24.14 10.33,-28.67c0,-0.46 -0.08,-0.75 -0.1,-0.86a0.28,0.28 0 0 1 0,-0.06l0.07,0.12a6.62,6.62 0 0 0 0.56,0.78c0.17,0.19 0.35,0.39 0.54,0.58l0,0l4.29,8.57s0,0.12 0,0.36l8.31,16.96z" id="svg_54" opacity="0.1" transform="translate(-82.53 -34.2)"/>
  <path d="m861,364.4l-4.15,1.18l-0.59,8.43s-4.88,-0.74 -6.21,5s-3.7,8.44 -3.7,8.44s-8.14,6.8 -8.58,12.57l-5,3.11s-11.69,-2.67 -14.35,-7.4c0,0 5.33,38.17 -23.08,28.85c0,0 31.81,13.9 33.29,15.83s11.24,7.54 20.12,2.81s10.8,-12 10.8,-12s8.58,-12 8.87,-13.76s7,-3.85 7,-3.85l12.72,-30.77l-27.14,-18.44z" fill="#65617d" id="svg_55" transform="translate(-82.53 -34.2)"/>
  <path d="m964.88,322.53l4.29,-19.53s1.92,6.36 3.85,7.84l6.36,4.89s6.36,2.95 8.58,2.95s14.2,3.11 15.68,4.74s7.4,0.44 7.4,0.44s4.88,1.63 9.17,2.66s6.36,8.14 5.47,11a8.53,8.53 0 0 0 2.07,8c1.78,1.78 2.67,7.55 2.67,7.55a8.66,8.66 0 0 1 5,4.29c1.48,3.25 1,10.35 1,10.35l-22,31.07s0.29,12 -0.59,14.65s3.1,47.93 3.1,47.93l4.59,77.81s-6.07,5.18 -7.4,5.77s-2.66,-27.51 -2.66,-28.55s-34.17,-51.19 -34.17,-51.19s-4.59,-7.39 -4.59,-9s-4.29,-16.57 -4.29,-16.57l-6.51,-28.85l2.98,-88.25z" id="svg_56" opacity="0.1" transform="translate(-82.53 -34.2)"/>
  <path d="m1038.31,366c0,1 0,1.7 0,1.7l-22,31l0,0s0.3,12 -0.58,14.64c-0.52,1.55 0.61,17.47 1.66,30.55c0.74,9.43 1.44,17.38 1.44,17.38l1.95,33l2.63,44.8s-6.06,5.18 -7.39,5.77s-2.66,-27.51 -2.66,-28.55s-34.18,-51.18 -34.18,-51.18s-4.59,-7.41 -4.59,-9s-4.29,-16.57 -4.29,-16.57l-6.5,-28.85l2.95,-88.17l2.42,-19.52s3.7,6.37 5.62,7.84l6.36,4.88s6.36,3 8.58,3s14.21,3.1 15.69,4.73s7.39,0.44 7.39,0.44s4.88,1.63 9.17,2.66s6.37,8.14 5.48,11a8.51,8.51 0 0 0 2.07,8c1.77,1.77 2.66,7.54 2.66,7.54a8.7,8.7 0 0 1 5,4.3c1.06,2.15 1.16,6.26 1.12,8.61z" fill="#65617d" id="svg_57" transform="translate(-82.53 -34.2)"/>
  <path d="m857.48,760.14c0.73,0 31.8,1.18 31.21,6.21s-31.21,-6.21 -31.21,-6.21z" id="svg_58" opacity="0.1" transform="translate(-82.53 -34.2)"/>
  <path d="m864.43,768.57s20.86,3.4 15.38,6.51s-15.38,-6.51 -15.38,-6.51z" id="svg_59" opacity="0.1" transform="translate(-82.53 -34.2)"/>
  <path d="m942,756.88s34.62,3 29.44,6.81s-17.46,4.43 -18,4.58s-11.44,-11.39 -11.44,-11.39z" id="svg_60" opacity="0.1" transform="translate(-82.53 -34.2)"/>
  <path d="m937.81,772.12s19.23,3.25 19.82,7s-19.82,-7 -19.82,-7z" id="svg_61" opacity="0.1" transform="translate(-82.53 -34.2)"/>
  <path d="m948.46,683.06s17.6,4.14 18.64,7l-18.64,-7z" id="svg_62" opacity="0.1" transform="translate(-82.53 -34.2)"/>
  <path d="m880.55,695.78s-9.17,2.66 -0.29,8s0.29,-8 0.29,-8z" id="svg_63" opacity="0.1" transform="translate(-82.53 -34.2)"/>
  <path d="m921.24,553.61c1,0 17.16,-5.32 22.78,-3a37.49,37.49 0 0 0 12.57,2.39l-35.35,0.61z" id="svg_64" opacity="0.1" transform="translate(-82.53 -34.2)"/>
  <path d="m923.31,570.47l-0.16,1.47l-13.75,36.12s-2.22,10.94 -4.14,17.15a112.18,112.18 0 0 0 -2.89,12.85l12.21,-75.72l8.73,8.13z" id="svg_65" opacity="0.1" transform="translate(-82.53 -34.2)"/>
  <path d="m944.79,506.73l-5.73,0.1l-0.18,0l-3.36,-14.91l5,-0.27l4.27,15.08z" fill="#3f3d56" id="svg_66" transform="translate(-82.53 -34.2)"/>
  <path d="m1014.59,488.67l-3.69,3l-12.29,10.13s-33.29,17.76 -42.46,0.89c-8.08,-14.86 29.66,-25.47 38.75,-27.78c1.23,-0.31 1.93,-0.47 1.93,-0.47l17.76,14.23z" fill="#fbbebe" id="svg_67" transform="translate(-82.53 -34.2)"/>
  <path d="m872.42,343.24s6.51,3 8,7.1s-8,-7.1 -8,-7.1z" id="svg_68" opacity="0.1" transform="translate(-82.53 -34.2)"/>
  <path d="m852.3,387.62s-9.47,11.54 -5.62,16s5.62,-16 5.62,-16z" id="svg_69" opacity="0.1" transform="translate(-82.53 -34.2)"/>
  <path d="m1021.54,349.75s-8.88,0.89 -9.17,8.58l9.17,-8.58z" id="svg_70" opacity="0.1" transform="translate(-82.53 -34.2)"/>
  <path d="m939.29,471.06c0.88,-0.89 21.3,-31.07 26,-28.4l-26,28.4z" id="svg_71" opacity="0.1" transform="translate(-82.53 -34.2)"/>
  <path d="m977.46,274.89a35,35 0 0 1 -4.17,16.62l-0.26,-0.05c-2.23,-0.47 -3.39,-3.07 -5.1,-4.69a6.93,6.93 0 0 0 -8,-1.12a8.13,8.13 0 0 0 -3.92,7.59c-1.13,-4.74 -0.77,-9.77 -1.87,-14.52s-4.41,-9.55 -8.95,-9.63c-2,0 -4.23,0.71 -5.65,-0.75c-0.85,-0.88 -1,-2.27 -1.66,-3.35c-3.24,-5.24 -13.11,-2.59 -17.14,0.1s-8.7,7 -13.71,9.3a35.21,35.21 0 0 1 70.42,0.5l0.01,0z" id="svg_72" opacity="0.1" transform="translate(-82.53 -34.2)"/>
  <path d="m937.89,264.11c0.64,1.07 0.81,2.46 1.66,3.34c1.41,1.47 3.7,0.71 5.65,0.75c4.54,0.08 7.85,4.88 8.95,9.63s0.74,9.78 1.87,14.52a8.11,8.11 0 0 1 3.93,-7.59a6.93,6.93 0 0 1 8,1.12c1.71,1.62 2.87,4.22 5.1,4.69s4.38,-1.67 5.19,-4s0.75,-4.93 1.28,-7.37c1,-4.61 4,-8.4 5.68,-12.79a23.17,23.17 0 0 0 -0.15,-16.52c-1.11,-2.78 -2.76,-5.28 -3.89,-8.05c-1.7,-4.22 -2.14,-9 -4.22,-13c-3.48,-6.73 -11.68,-10.09 -18.43,-7.56c-3.21,1.2 -6,3.54 -9.27,4.59c-4.37,1.41 -9.05,0.35 -13.57,-0.28s-9.53,-0.69 -13.17,2.28c-4.19,3.43 -5.33,9.87 -9.27,13.63c-1.65,1.58 -3.7,2.59 -5.44,4s-3.25,3.63 -3,6c0.26,3.06 3.26,5.84 2.15,8.68a7,7 0 0 1 -1.64,2.17a30.93,30.93 0 0 0 -7.16,12.18c7.91,2.48 16.48,-6.25 22.68,-10.38c3.97,-2.63 13.83,-5.29 17.07,-0.04z" fill="#7c5c5c" id="svg_73" transform="translate(-82.53 -34.2)"/>
  <path d="m1014.59,488.67l-3.69,3c-3.25,-5.4 -16.58,-16.2 -16.58,-16.2l0.58,-0.56c1.23,-0.31 1.93,-0.47 1.93,-0.47l17.76,14.23z" id="svg_74" opacity="0.1" transform="translate(-82.53 -34.2)"/>
  <path d="m1018.14,483.19s-1.33,3.3 -2.69,6.14s-2.86,5.44 -2.93,3.33c-0.15,-4.14 -17.31,-18.05 -17.31,-18.05l2.33,-2.26l2.69,-2.62l17.91,13.46z" fill="#e7effd" id="svg_75" transform="translate(-82.53 -34.2)"/>
  <path d="m1018.73,461.29l1.95,33c-4.6,-7.15 -17.22,-25.47 -25.33,-24.88l19.65,-22.61a26.81,26.81 0 0 0 2.26,-2.89c0.74,9.43 1.47,17.38 1.47,17.38z" id="svg_76" opacity="0.1" transform="translate(-82.53 -34.2)"/>
  <path d="m1018.14,483.19s-1.33,3.3 -2.69,6.14c-5.16,-7.07 -12.25,-15.42 -17.91,-17l2.69,-2.62l17.91,13.48z" id="svg_77" opacity="0.1" transform="translate(-82.53 -34.2)"/>
  <path d="m1032.93,363.51l5.33,4.14s8.87,0.15 9.76,7.55s9,10.8 9,10.8s6.06,6.06 6.06,8.87s4.59,7.84 4.59,8.29s4.44,9.47 3.84,11.09s4.74,8.73 3.11,11.39a65.63,65.63 0 0 0 -3.55,7.4s-6.95,13.32 -10.5,15.83s-19.83,23.67 -19.83,23.67s-17.45,20.12 -17.45,26.33c0,0 -17,-28.4 -27.08,-27.66l19.68,-22.64s3.4,-3.69 3.55,-5.91s9.47,-12.43 13.91,-12.87c0,0 0.73,-6.07 -1.19,-6.22s-3.55,-4.88 -3.55,-4.88s-13,-15.38 -13.17,-25.15s17.49,-30.03 17.49,-30.03z" fill="#65617d" id="svg_78" transform="translate(-82.53 -34.2)"/>
  <path d="m1040.77,377.56s-12.42,9.18 -9.76,12.13s9.76,-12.13 9.76,-12.13z" id="svg_79" opacity="0.1" transform="translate(-82.53 -34.2)"/>
  <path d="m1041.36,415.44s23.08,-7.4 25.45,0l-25.45,0z" id="svg_80" opacity="0.1" transform="translate(-82.53 -34.2)"/>
  <path d="m898.46,808.51s-12.43,8.14 -18.64,7s-12.58,2.08 -12.58,2.08a37.48,37.48 0 0 1 -15.69,10.21c-10,3.4 -24.1,2.06 -32.09,-0.6c-3.78,-1.26 -4.09,-2.88 -2.27,-4.89c8.69,1.73 28.1,5.18 33.33,2.67c6.8,-3.26 16.57,-10.36 16.57,-10.36s12.73,-1.77 14.5,-1.77c1.26,0 11.09,-4.06 16.64,-6.38l0.23,2.04z" id="svg_81" opacity="0.1" transform="translate(-82.53 -34.2)"/>
  <path d="m973.73,825.15l-0.13,0.82s-3,6.51 -19.37,8.88s-16.42,-5.48 -16.42,-5.48s0.06,-0.84 0.16,-2.11c5.2,1.97 16.54,4.17 35.76,-2.11z" id="svg_82" opacity="0.1" transform="translate(-82.53 -34.2)"/>
  <path d="m878.56,375.79s0,33.73 -2.89,37.06s2.89,-37.06 2.89,-37.06z" id="svg_83" opacity="0.1" transform="translate(-82.53 -34.2)"/>
  <path d="m1011.92,386.66l4.29,12.06s1.71,-11.84 -4.29,-12.06z" id="svg_84" opacity="0.1" transform="translate(-82.53 -34.2)"/>
  <g id="svg_85" opacity="0.1">
   <path d="m907.32,257.35c1.08,-2.78 -1.76,-5.5 -2.13,-8.48a5.56,5.56 0 0 0 -0.47,2.68c0.19,2.24 1.84,4.33 2.28,6.41a4,4 0 0 0 0.32,-0.61z" id="svg_86" transform="translate(-82.53 -34.2)"/>
   <path d="m956.42,289.21c-1.06,-4.66 -0.75,-9.6 -1.83,-14.27s-4.41,-9.55 -8.94,-9.63c-2,0 -4.24,0.72 -5.65,-0.74c-0.86,-0.88 -1,-2.28 -1.67,-3.35c-3.24,-5.25 -13.1,-2.59 -17.14,0.1c-6,4 -14.36,12.43 -22.12,10.53c-0.37,0.89 -0.71,1.8 -1,2.73c7.91,2.48 16.48,-6.25 22.68,-10.38c4,-2.68 13.9,-5.34 17.14,-0.09c0.64,1.07 0.81,2.46 1.66,3.34c1.41,1.47 3.7,0.71 5.65,0.75c4.54,0.08 7.85,4.88 8.95,9.63s0.74,9.78 1.87,14.52a8.16,8.16 0 0 1 0.4,-3.14z" id="svg_87" transform="translate(-82.53 -34.2)"/>
   <path d="m978.66,283.67c-0.8,2.34 -2.91,4.5 -5.19,4s-3.39,-3.07 -5.09,-4.7a7,7 0 0 0 -8,-1.11a8.06,8.06 0 0 0 -3.93,7.16a7.76,7.76 0 0 1 3.49,-4.28a6.93,6.93 0 0 1 8,1.12c1.71,1.62 2.87,4.22 5.1,4.69s4.38,-1.67 5.19,-4a20.21,20.21 0 0 0 0.81,-4.25a11.1,11.1 0 0 1 -0.38,1.37z" id="svg_88" transform="translate(-82.53 -34.2)"/>
   <path d="m985.62,263.51c-1.66,4.39 -4.68,8.17 -5.68,12.79c-0.2,0.93 -0.32,1.88 -0.43,2.84c1,-4.6 4,-8.37 5.67,-12.75a22.81,22.81 0 0 0 1.37,-6.13a22.39,22.39 0 0 1 -0.93,3.25z" id="svg_89" transform="translate(-82.53 -34.2)"/>
  </g>
  <circle cx="689.3" cy="336.07" fill="#e6e8ec" id="svg_90" r="0.36"/>
  <ellipse cx="817.04" cy="792.28" fill="#6c63ff" id="svg_91" opacity="0.1" rx="86.34" ry="8.81"/>
  <path d="m582.08,248.59l-261.51,169.66l170.66,307.8a11.91,11.91 0 0 0 7.6,5.8l154.63,37.72a11.92,11.92 0 0 0 13.54,-6.41l76.7,-159.35l84.06,-112.37l-199.48,-236a35.35,35.35 0 0 0 -46.2,-6.85z" fill="#dcdfed" id="svg_92" transform="translate(-82.53 -34.2)"/>
  <path d="m830.42,492.77l-0.74,1l-49.24,65.83l-0.89,1.19l-33.19,44.37l-65.6,136.31l-1.84,3.81l-9.26,19.23a11.92,11.92 0 0 1 -13.56,6.41l-154.63,-37.74a11.89,11.89 0 0 1 -7.6,-5.8l-14.87,-26.77l-2.67,-4.82l-107.33,-193.66l-0.92,-1.65l-44.86,-80.9l5.42,-3.52l41.09,-26.65l0.95,-0.62l86.53,-56.14l5.46,-3.54l122.05,-79.19a35.34,35.34 0 0 1 46.22,6.84l91,107.7l4,4.8l66.05,78.14l0.36,0.43l33.21,39.28l4.18,4.95l0.68,0.71z" id="svg_93" opacity="0.1" transform="translate(-82.53 -34.2)"/>
  <path d="m789.79,446.5l-8.06,56l-2.43,16.9l-1.39,36l-0.11,2.81l-7.23,188.1a11.93,11.93 0 0 1 -14.51,11.17l-77.94,-17.4l-0.84,-0.19l-199.89,-44.61l-3.67,-0.82l-109.89,-24.54l2.52,-169.12l0.08,-5.65l0.76,-51.19l0.84,-56.5l86.53,-56.14l5.46,-3.54c80.26,8.23 187,24.06 259.31,35.35l4,4.8l66,78.14l0.46,0.43z" id="svg_94" opacity="0.1" transform="translate(-82.53 -34.2)"/>
  <path d="m716.390001,345.899999l-9.49,66l-8.7,60.44l-2.43,16.86l-1.39,36l-7.34,190.91a11.93,11.93 0 0 1 -14.51,11.17l-78.78,-17.59l-199.89,-44.61l-113.56,-25.36l2.6,-174.77l0.76,-51.19l0.89,-59.88l0.91,-61.59c18.78,-0.89 49.68,1.12 86.57,4.83c82.6,8.29 195.2,25.06 268.82,36.61c45.08,7.07 75.54,12.17 75.54,12.17z" fill="#3f3f3f" id="svg_95"/>
  <path d="m823,485.78l-42.27,20.73l-215.73,105.8l-198.81,-164.31l-40.19,-33.27l-5.42,3.52l44.86,80.9l-2.6,174.77l113.56,25.36l14.84,26.77a11.89,11.89 0 0 0 7.6,5.8l154.63,37.72a11.92,11.92 0 0 0 13.53,-6.41l9.26,-19.23l78.78,17.59a11.93,11.93 0 0 0 14.51,-11.17l7.34,-190.91l50.13,-67l0.14,-1.69l-4.16,-4.97z" id="svg_96" opacity="0.1" transform="translate(-82.53 -34.2)"/>
  <path d="m320.57,418.25l-17.83,305.33a11.92,11.92 0 0 0 9.31,12.33l473.52,105.15a11.92,11.92 0 0 0 14.43,-10.67l27.75,-338.95l-262.75,128.87l-244.43,-202.06z" fill="#dcdfed" id="svg_97" transform="translate(-82.53 -34.2)"/>
  <path d="m306,730.57l246,-151.77a18.06,18.06 0 0 1 23,3.6l220.18,256.79c0.8,0.92 1.19,0.26 0,0l-489.18,-108.62c-1.4,-0.31 -1.22,0.73 0,0z" id="svg_98" opacity="0.1" transform="translate(-82.53 -34.2)"/>
  <path d="m307.76,730.32l243.46,-147.07a19.09,19.09 0 0 1 24.28,3.82l218.19,250.93a2.63,2.63 0 0 1 -2.55,4.29l-482.59,-107.16a2.62,2.62 0 0 1 -0.79,-4.81z" fill="#e3e5f1" id="svg_99" transform="translate(-82.53 -34.2)"/>
 </g>
</svg>